<?xml version="1.0" encoding="UTF-8"?>
<svg width="36px" height="36px" viewBox="0 0 36 36" version="1.1" xmlns="http://www.w3.org/2000/svg" xmlns:xlink="http://www.w3.org/1999/xlink">
    <title>Capture</title>
    <g id="Capture" stroke="none" stroke-width="1" fill="none" fill-rule="evenodd">
        <g id="Group-4">
            <circle id="Oval" fill="#F1F1F4" cx="18" cy="18" r="18"></circle>
            <g id="Group-2" transform="translate(9.000000, 9.000000)" fill="#000000" fill-rule="nonzero">
                <path d="M5.25,0 C5.66421356,0 6,0.335786438 6,0.75 C6,1.11818983 5.73468726,1.42441256 5.38481345,1.4879165 L5.25,1.5 L1.5,1.5 L1.5,5.25 C1.5,5.61818983 1.23468726,5.92441256 0.884813449,5.9879165 L0.75,6 C0.381810167,6 0.0755874445,5.73468726 0.0120835041,5.38481345 L0,5.25 L0,1.5 C1.20591542e-16,0.671572875 0.671572875,1.52179594e-16 1.5,0 L5.25,0 L5.25,0 Z" id="Path"></path>
                <path d="M17.25,0 C17.6642136,0 18,0.335786438 18,0.75 C18,1.11818983 17.7346873,1.42441256 17.3848134,1.4879165 L17.25,1.5 L13.5,1.5 L13.5,5.25 C13.5,5.61818983 13.2346873,5.92441256 12.8848134,5.9879165 L12.75,6 C12.3818102,6 12.0755874,5.73468726 12.0120835,5.38481345 L12,5.25 L12,1.5 C12,0.671572875 12.6715729,1.52179594e-16 13.5,0 L17.25,0 L17.25,0 Z" id="Path-Copy" transform="translate(15.000000, 3.000000) scale(-1, 1) translate(-15.000000, -3.000000) "></path>
                <g id="Group" transform="translate(9.000000, 15.000000) scale(-1, -1) translate(-9.000000, -15.000000) translate(0.000000, 12.000000)">
                    <path d="M5.25,0 C5.66421356,0 6,0.335786438 6,0.75 C6,1.11818983 5.73468726,1.42441256 5.38481345,1.4879165 L5.25,1.5 L1.5,1.5 L1.5,5.25 C1.5,5.61818983 1.23468726,5.92441256 0.884813449,5.9879165 L0.75,6 C0.381810167,6 0.0755874445,5.73468726 0.0120835041,5.38481345 L0,5.25 L0,1.5 C1.20591542e-16,0.671572875 0.671572875,1.52179594e-16 1.5,0 L5.25,0 L5.25,0 Z" id="Path-Copy-2"></path>
                    <path d="M17.25,0 C17.6642136,0 18,0.335786438 18,0.75 C18,1.11818983 17.7346873,1.42441256 17.3848134,1.4879165 L17.25,1.5 L13.5,1.5 L13.5,5.25 C13.5,5.61818983 13.2346873,5.92441256 12.8848134,5.9879165 L12.75,6 C12.3818102,6 12.0755874,5.73468726 12.0120835,5.38481345 L12,5.25 L12,1.5 C12,0.671572875 12.6715729,1.52179594e-16 13.5,0 L17.25,0 L17.25,0 Z" id="Path-Copy-3" transform="translate(15.000000, 3.000000) scale(-1, 1) translate(-15.000000, -3.000000) "></path>
                </g>
            </g>
            <circle id="Oval-Copy" fill="#000000" cx="18" cy="18" r="2"></circle>
        </g>
    </g>
</svg>